<svg width="29" height="28" viewBox="0 0 29 28" fill="none" xmlns="http://www.w3.org/2000/svg">
<path d="M19.4872 25.4793V20.9972C19.5306 20.445 19.456 19.8898 19.2683 19.3686C19.0806 18.8474 18.7841 18.3722 18.3985 17.9744C22.0351 17.5691 25.857 16.1909 25.857 9.86739C25.8567 8.25042 25.2347 6.69545 24.1198 5.52433C24.6477 4.10966 24.6104 2.54597 24.0156 1.15811C24.0156 1.15811 22.6489 0.752753 19.4872 2.87217C16.8327 2.15275 14.0346 2.15275 11.3802 2.87217C8.2184 0.752753 6.85178 1.15811 6.85178 1.15811C6.25693 2.54597 6.2196 4.10966 6.74755 5.52433C5.62429 6.70414 5.00167 8.27316 5.01033 9.90214C5.01033 16.1793 8.83222 17.5575 12.4688 18.0092C12.0878 18.4029 11.7939 18.8725 11.6063 19.3873C11.4188 19.9021 11.3417 20.4506 11.3802 20.9972V25.4793M11.3802 22.0048C5.5894 23.742 5.5894 19.1094 3.2731 18.5304L11.3802 22.0048Z" stroke="black" stroke-width="2.0215" stroke-linecap="round" stroke-linejoin="round"/>
</svg>
