<svg width="28" height="28" viewBox="0 0 28 28" fill="none" xmlns="http://www.w3.org/2000/svg">
<path d="M18.5304 9.26517C20.3733 9.26517 22.1408 9.99728 23.444 11.3005C24.7472 12.6036 25.4793 14.3711 25.4793 16.2141V24.3211H20.8467V16.2141C20.8467 15.5997 20.6026 15.0106 20.1683 14.5762C19.7339 14.1418 19.1447 13.8978 18.5304 13.8978C17.9161 13.8978 17.3269 14.1418 16.8925 14.5762C16.4581 15.0106 16.2141 15.5997 16.2141 16.2141V24.3211H11.5815V16.2141C11.5815 14.3711 12.3136 12.6036 13.6168 11.3005C14.9199 9.99728 16.6874 9.26517 18.5304 9.26517V9.26517Z" stroke="black" stroke-width="2.0215" stroke-linecap="round" stroke-linejoin="round"/>
<path d="M6.94885 10.4233H2.31625V24.3211H6.94885V10.4233Z" stroke="black" stroke-width="2.0215" stroke-linecap="round" stroke-linejoin="round"/>
<path d="M4.63255 6.94891C5.91181 6.94891 6.94885 5.91187 6.94885 4.63261C6.94885 3.35336 5.91181 2.31631 4.63255 2.31631C3.3533 2.31631 2.31625 3.35336 2.31625 4.63261C2.31625 5.91187 3.3533 6.94891 4.63255 6.94891Z" stroke="black" stroke-width="2.0215" stroke-linecap="round" stroke-linejoin="round"/>
</svg>
